<?xml version="1.0" encoding="utf-8"?>
<!-- Generator: Adobe Illustrator 19.2.1, SVG Export Plug-In . SVG Version: 6.00 Build 0)  -->
<svg version="1.1" id="layer" xmlns="http://www.w3.org/2000/svg" xmlns:xlink="http://www.w3.org/1999/xlink" x="0px" y="0px"
	 viewBox="0 0 652 652" style="enable-background:new 0 0 652 652;" xml:space="preserve">
<style type="text/css">
	.st0{fill-rule:evenodd;clip-rule:evenodd;}
	.st1{fill:#E7C023;}
	.st2{fill:#FFFFFF;}
</style>
<g>
	<path class="st0" d="M507.1,323.1c0,102.3-83,185.3-185.3,185.3c-102.3,0-185.3-83-185.3-185.3c0-102.3,83-185.3,185.3-185.3
		C424.2,137.8,507.1,220.8,507.1,323.1"/>
	<path class="st1" d="M290,121.5h-83.8l-42.3,73.3C194.8,156.5,239.3,129.6,290,121.5"/>
	<path class="st1" d="M479.8,194.8l-42.3-73.3h-83.8C404.4,129.6,448.9,156.5,479.8,194.8"/>
	<path class="st1" d="M479.8,448.7c-30.9,38.3-75.4,65.2-126.1,73.3h83.8L479.8,448.7z"/>
	<path class="st1" d="M90.6,321.8l42,72.8c-8.7-22.6-13.6-47.2-13.6-72.8c0-25.7,4.8-50.2,13.6-72.8L90.6,321.8z"/>
	<path class="st1" d="M571.5,309.7c-4-82.9-48.6-155.3-114.2-197.9L571.5,309.7z"/>
	<path class="st1" d="M290,522c-50.7-8-95.2-34.9-126.1-73.3l42.3,73.3H290z"/>
	<path class="st1" d="M436,99.5C401.8,81.8,363,71.8,321.8,71.8c-41.1,0-79.9,10-114.2,27.7H436z"/>
	<path class="st1" d="M457.3,531.7c65.7-42.5,110.3-114.9,114.2-197.9L457.3,531.7z"/>
	<path class="st1" d="M207.7,544.1c34.3,17.7,73.1,27.7,114.2,27.7c41.1,0,79.9-10,114.2-27.7H207.7z"/>
	<path class="st1" d="M72.1,333.9c4,82.9,48.6,155.3,114.2,197.9L72.1,333.9z"/>
	<path class="st1" d="M186.4,111.8C120.7,154.3,76.1,226.8,72.1,309.7L186.4,111.8z"/>
	<path class="st1" d="M553.1,321.8L511,249c8.7,22.6,13.6,47.2,13.6,72.8c0,25.7-4.8,50.2-13.6,72.8L553.1,321.8z"/>
	<polygon class="st2" points="362.4,364 362.6,309.2 331.4,364 325.2,364 293.9,308.9 293.8,364 283.4,364 283.4,292 297.6,292 
		328.6,345.8 358.9,292 373.3,292 373.3,364 	"/>
	<path class="st2" d="M389.4,364.3v-72.1h61.8c9.9,0,17.9,8,17.9,17.9v12.7c0,9.9-8,17.9-17.9,17.9h-50.5v23.7H389.4z M451.2,330
		c4,0,7.3-3.3,7.3-7.3V310c0-4-3.3-7.3-7.3-7.3h-50.5V330H451.2z"/>
	<path class="st2" d="M257.5,340.9v6.3c0,4-3.3,7.3-7.3,7.3h-52.8c-4,0-7.3-3.3-7.3-7.3v-37.2c0-4,3.3-7.3,7.3-7.3h52.8
		c4,0,7.3,3.3,7.3,7.3v5.9h10.6v-5.9c0-9.9-8-17.9-17.9-17.9h-52.8c-9.9,0-17.9,8-17.9,17.9v37.2c0,9.9,8,17.9,17.9,17.9h52.8
		c9.9,0,17.9-8,17.9-17.9v-6.3H257.5z"/>
</g>
</svg>
